<svg id="Layer_1" data-name="Layer 1" xmlns="http://www.w3.org/2000/svg" viewBox="0 0 2322.38 1340.05"><defs><style>.cls-1{fill:#961b1e;}</style></defs><polygon class="cls-1" points="1190.75 731.17 1161.32 782.13 1131.89 731.17 1190.75 731.17"/><polygon class="cls-1" points="1161.32 614.52 1190.11 664.39 1132.52 664.39 1161.32 614.52"/><polygon class="cls-1" points="1103.17 580.95 1074.38 630.82 1045.59 580.95 1103.17 580.95"/><polygon class="cls-1" points="987.43 612.86 1017.68 665.22 957.2 665.22 987.43 612.86"/><polygon class="cls-1" points="1018.57 730.18 987.43 784.1 956.3 730.18 1018.57 730.18"/><polygon class="cls-1" points="1074.38 762.93 1105.05 816.06 1043.7 816.06 1074.38 762.93"/><polygon class="cls-1" points="1248.26 762.98 1278.89 816.04 1217.63 816.04 1248.26 762.98"/><polygon class="cls-1" points="1278.29 580.24 1248.26 632.24 1218.23 580.24 1278.29 580.24"/><polygon class="cls-1" points="1074.38 463.98 1103.13 513.78 1045.63 513.78 1074.38 463.98"/><polygon class="cls-1" points="931.95 579.41 900.49 633.88 869.05 579.41 931.95 579.41"/><polygon class="cls-1" points="900.49 761.51 932.41 816.78 868.59 816.78 900.49 761.51"/><polygon class="cls-1" points="1105.97 880.5 1074.38 935.22 1042.79 880.5 1105.97 880.5"/><polygon class="cls-1" points="1367.53 729.51 1335.2 785.48 1302.88 729.51 1367.53 729.51"/><polygon class="cls-1" points="1335.2 612.1 1366.09 665.6 1304.32 665.6 1335.2 612.1"/><polygon class="cls-1" points="1248.26 463.07 1277.79 514.23 1218.73 514.23 1248.26 463.07"/><polygon class="cls-1" points="1191.16 429.76 1161.32 481.43 1131.48 429.76 1191.16 429.76"/><polygon class="cls-1" points="1017.69 429.53 987.43 481.92 957.19 429.53 1017.69 429.53"/><polygon class="cls-1" points="900.49 461.32 931.55 515.11 869.44 515.11 900.49 461.32"/><polygon class="cls-1" points="813.55 607.71 848.25 667.8 778.85 667.8 813.55 607.71"/><polygon class="cls-1" points="848.84 727.78 813.55 788.91 778.26 727.78 848.84 727.78"/><polygon class="cls-1" points="932.09 880.5 900.49 935.22 868.91 880.5 932.09 880.5"/><polygon class="cls-1" points="987.43 912.45 1019.04 967.18 955.84 967.18 987.43 912.45"/><polygon class="cls-1" points="1161.32 912.87 1192.55 966.98 1130.08 966.98 1161.32 912.87"/><polygon class="cls-1" points="1279.13 880.92 1248.26 934.39 1217.39 880.92 1279.13 880.92"/><polygon class="cls-1" points="1455.78 879.34 1422.14 937.58 1388.51 879.34 1455.78 879.34"/><polygon class="cls-1" points="1422.14 759.28 1455.98 817.9 1388.3 817.9 1422.14 759.28"/><polygon class="cls-1" points="1452.41 580.1 1422.14 632.54 1391.88 580.1 1452.41 580.1"/><polygon class="cls-1" points="1422.14 465.19 1449.85 513.18 1394.43 513.18 1422.14 465.19"/><polygon class="cls-1" points="1364.79 429.92 1335.2 481.15 1305.62 429.92 1364.79 429.92"/><polygon class="cls-1" points="1161.32 310.39 1192.67 364.7 1129.96 364.7 1161.32 310.39"/><polygon class="cls-1" points="1105.49 278.44 1074.38 332.33 1043.26 278.44 1105.49 278.44"/><polygon class="cls-1" points="987.43 310.91 1018.34 364.43 956.53 364.43 987.43 310.91"/><polygon class="cls-1" points="845.37 428.62 813.55 483.72 781.74 428.62 845.37 428.62"/><polygon class="cls-1" points="726.61 459.56 759.21 516 694.02 516 726.61 459.56"/><polygon class="cls-1" points="762.71 576.73 726.61 639.27 690.51 576.73 762.71 576.73"/><polygon class="cls-1" points="726.61 754.18 764.88 820.45 688.35 820.45 726.61 754.18"/><polygon class="cls-1" points="762.61 877.97 726.61 940.31 690.61 877.97 762.61 877.97"/><polygon class="cls-1" points="813.55 910.97 846.44 967.93 780.67 967.93 813.55 910.97"/><polygon class="cls-1" points="1019.44 1030.86 987.43 1086.29 955.43 1030.86 1019.44 1030.86"/><polygon class="cls-1" points="1074.38 1060.94 1107.8 1118.82 1040.95 1118.82 1074.38 1060.94"/><polygon class="cls-1" points="1192.96 1031.06 1161.32 1085.87 1129.68 1031.06 1192.96 1031.06"/><polygon class="cls-1" points="1335.2 910.71 1368.31 968.06 1302.1 968.06 1335.2 910.71"/><polygon class="cls-1" points="1509.09 910.43 1542.44 968.2 1475.73 968.2 1509.09 910.43"/><polygon class="cls-1" points="1541.09 729.68 1509.09 785.12 1477.08 729.68 1541.09 729.68"/><polygon class="cls-1" points="1509.09 613.85 1538.46 664.73 1479.71 664.73 1509.09 613.85"/><polygon class="cls-1" points="1533.24 433.04 1509.09 474.88 1484.92 433.04 1533.24 433.04"/><polygon class="cls-1" points="1335.2 312.54 1364.69 363.62 1305.72 363.62 1335.2 312.54"/><polygon class="cls-1" points="1280.44 277.82 1248.26 333.56 1216.08 277.82 1280.44 277.82"/><polygon class="cls-1" points="1074.38 157.7 1107.56 215.17 1041.2 215.17 1074.38 157.7"/><polygon class="cls-1" points="931.62 278.44 900.49 332.33 869.38 278.44 931.62 278.44"/><polygon class="cls-1" points="813.55 311.2 844.2 364.29 782.9 364.29 813.55 311.2"/><polygon class="cls-1" points="669.07 430.02 639.66 480.92 610.29 430.02 669.07 430.02"/><polygon class="cls-1" points="639.66 604.55 677.1 669.38 602.24 669.38 639.66 604.55"/><polygon class="cls-1" points="678.66 725.64 639.66 793.18 600.67 725.64 678.66 725.64"/><polygon class="cls-1" points="639.66 908.14 675.01 969.33 604.34 969.33 639.66 908.14"/><polygon class="cls-1" points="845.19 1031.06 813.55 1085.87 781.92 1031.06 845.19 1031.06"/><polygon class="cls-1" points="900.49 1063.34 931.84 1117.62 869.15 1117.62 900.49 1063.34"/><polygon class="cls-1" points="1110.1 1179.3 1074.38 1241.16 1038.66 1179.3 1110.1 1179.3"/><polygon class="cls-1" points="1248.26 1063.34 1279.6 1117.62 1216.92 1117.62 1248.26 1063.34"/><polygon class="cls-1" points="1367.05 1030.94 1335.2 1086.11 1303.35 1030.94 1367.05 1030.94"/><polygon class="cls-1" points="1627.31 880.69 1596.03 934.87 1564.74 880.69 1627.31 880.69"/><polygon class="cls-1" points="1596.03 762.75 1626.86 816.16 1565.2 816.16 1596.03 762.75"/><polygon class="cls-1" points="1620.86 583.24 1596.03 626.25 1571.19 583.24 1620.86 583.24"/><polygon class="cls-1" points="1596.03 473.08 1616.91 509.23 1575.14 509.23 1596.03 473.08"/><polygon class="cls-1" points="1509.09 319.37 1532.66 360.21 1485.5 360.21 1509.09 319.37"/><polygon class="cls-1" points="1449.97 280.34 1422.14 328.53 1394.32 280.34 1449.97 280.34"/><polygon class="cls-1" points="1248.26 155.17 1283.62 216.43 1212.9 216.43 1248.26 155.17"/><polygon class="cls-1" points="1198.61 124.28 1161.32 188.87 1124.04 124.28 1198.61 124.28"/><polygon class="cls-1" points="1021.05 126.41 987.43 184.63 953.83 126.41 1021.05 126.41"/><polygon class="cls-1" points="900.49 159.48 932.12 214.28 868.87 214.28 900.49 159.48"/><polygon class="cls-1" points="754.45 280.33 726.61 328.54 698.78 280.33 754.45 280.33"/><polygon class="cls-1" points="639.66 316.92 665.37 361.43 613.97 361.43 639.66 316.92"/><polygon class="cls-1" points="552.74 466.44 579.35 512.55 526.11 512.55 552.74 466.44"/><polygon class="cls-1" points="584.53 579.22 552.74 634.3 520.93 579.22 584.53 579.22"/><polygon class="cls-1" points="552.74 756.6 588.88 819.24 516.58 819.24 552.74 756.6"/><polygon class="cls-1" points="587.05 878.94 552.74 938.37 518.41 878.94 587.05 878.94"/><polygon class="cls-1" points="671.47 1030.97 639.66 1086.05 607.87 1030.97 671.47 1030.97"/><polygon class="cls-1" points="726.61 1063.75 757.6 1117.41 695.63 1117.41 726.61 1063.75"/><polygon class="cls-1" points="933.55 1180.84 900.49 1238.08 867.44 1180.84 933.55 1180.84"/><polygon class="cls-1" points="951.78 1269.36 1023.09 1269.36 987.43 1207.6 951.78 1269.36"/><polygon class="cls-1" points="1126.03 1269.36 1196.61 1269.36 1161.32 1208.24 1126.03 1269.36"/><polygon class="cls-1" points="1280.79 1181.15 1248.26 1237.48 1215.74 1181.15 1280.79 1181.15"/><polygon class="cls-1" points="1422.14 1063.99 1452.92 1117.29 1391.37 1117.29 1422.14 1063.99"/><polygon class="cls-1" points="1540.07 1031.45 1509.09 1085.1 1478.09 1031.45 1540.07 1031.45"/><polygon class="cls-1" points="1708.32 1034.69 1682.97 1078.62 1657.62 1034.69 1708.32 1034.69"/><polygon class="cls-1" points="1682.97 917 1710.63 964.91 1655.31 964.91 1682.97 917"/><polygon class="cls-1" points="1709.06 733.09 1682.97 778.3 1656.87 733.09 1709.06 733.09"/><polygon class="cls-1" points="1682.97 621.82 1705.44 660.75 1660.5 660.75 1682.97 621.82"/><polygon class="cls-1" points="1697.52 438.59 1682.97 463.78 1668.41 438.59 1697.52 438.59"/><polygon class="cls-1" points="1682.97 331.79 1695.79 353.99 1670.15 353.99 1682.97 331.79"/><polygon class="cls-1" points="1615 285.44 1596.03 318.32 1577.04 285.44 1615 285.44"/><polygon class="cls-1" points="1422.14 160.69 1452.72 213.66 1391.56 213.66 1422.14 160.69"/><polygon class="cls-1" points="1370.93 125.18 1335.2 187.08 1299.47 125.18 1370.93 125.18"/><polygon class="cls-1" points="842.87 128.89 813.55 179.67 784.23 128.89 842.87 128.89"/><polygon class="cls-1" points="726.61 166.47 752.19 210.77 701.03 210.77 726.61 166.47"/><polygon class="cls-1" points="571.41 285.61 552.74 317.98 534.04 285.61 571.41 285.61"/><polygon class="cls-1" points="465.79 330.83 479.44 354.47 452.15 354.47 465.79 330.83"/><polygon class="cls-1" points="482.89 437.12 465.79 466.72 448.69 437.12 482.89 437.12"/><polygon class="cls-1" points="465.79 617.2 492.27 663.06 439.31 663.06 465.79 617.2"/><polygon class="cls-1" points="495.47 731.02 465.79 782.43 436.11 731.02 495.47 731.02"/><polygon class="cls-1" points="465.79 915.47 494.77 965.67 436.81 965.67 465.79 915.47"/><polygon class="cls-1" points="491.55 1034.46 465.79 1079.08 440.02 1034.46 491.55 1034.46"/><polygon class="cls-1" points="552.74 1067.75 580.25 1115.42 525.21 1115.42 552.74 1067.75"/><polygon class="cls-1" points="755.74 1183.1 726.61 1233.55 697.48 1183.1 755.74 1183.1"/><polygon class="cls-1" points="813.55 1213.57 845.2 1268.39 781.91 1268.39 813.55 1213.57"/><polygon class="cls-1" points="1335.2 1213.57 1366.84 1268.39 1303.56 1268.39 1335.2 1213.57"/><polygon class="cls-1" points="1451.62 1182.91 1422.14 1233.95 1392.67 1182.91 1451.62 1182.91"/><polygon class="cls-1" points="1596.03 1068.79 1622.66 1114.9 1569.4 1114.9 1596.03 1068.79"/><polygon class="cls-1" points="1769.91 1078.33 1788.26 1110.13 1751.56 1110.13 1769.91 1078.33"/><polygon class="cls-1" points="1791.22 886.44 1769.91 923.35 1748.61 886.44 1791.22 886.44"/><polygon class="cls-1" points="1769.91 774.23 1790.8 810.41 1749.02 810.41 1769.91 774.23"/><polygon class="cls-1" points="1784.77 588.99 1769.91 614.73 1755.05 588.99 1784.77 588.99"/><polygon class="cls-1" points="1769.91 484.14 1781.2 503.71 1758.61 503.71 1769.91 484.14"/><polygon class="cls-1" points="1778.82 291.26 1769.91 306.67 1761 291.26 1778.82 291.26"/><polygon class="cls-1" points="1596.03 172.18 1616.65 207.92 1575.39 207.92 1596.03 172.18"/><polygon class="cls-1" points="1537.96 129.14 1509.09 179.16 1480.2 129.14 1537.96 129.14"/><polygon class="cls-1" points="659.76 134.22 639.66 169.02 619.58 134.22 659.76 134.22"/><polygon class="cls-1" points="552.74 177.58 568.7 205.22 536.77 205.22 552.74 177.58"/><polygon class="cls-1" points="385.04 292.82 378.85 303.55 372.66 292.82 385.04 292.82"/><polygon class="cls-1" points="378.85 484.2 390.08 503.66 367.62 503.66 378.85 484.2"/><polygon class="cls-1" points="393.9 588.89 378.85 614.95 363.8 588.89 393.9 588.89"/><polygon class="cls-1" points="378.85 774.05 399.9 810.51 357.8 810.51 378.85 774.05"/><polygon class="cls-1" points="400.02 886.53 378.85 923.2 357.67 886.53 400.02 886.53"/><polygon class="cls-1" points="378.85 1080.05 395.72 1109.27 361.97 1109.27 378.85 1080.05"/><polygon class="cls-1" points="576.22 1186.36 552.74 1227.04 529.24 1186.36 576.22 1186.36"/><polygon class="cls-1" points="639.66 1220.58 665.25 1264.88 614.09 1264.88 639.66 1220.58"/><polygon class="cls-1" points="1509.09 1219.54 1535.56 1265.41 1482.6 1265.41 1509.09 1219.54"/><polygon class="cls-1" points="1620.19 1185.96 1596.03 1227.83 1571.85 1185.96 1620.19 1185.96"/><polygon class="cls-1" points="1869.77 1041.87 1856.85 1064.26 1843.92 1041.87 1869.77 1041.87"/><polygon class="cls-1" points="1856.85 933.23 1870.45 956.8 1843.24 956.8 1856.85 933.23"/><polygon class="cls-1" points="1869.44 740.9 1856.85 762.69 1844.27 740.9 1869.44 740.9"/><polygon class="cls-1" points="1856.85 635.79 1867.22 653.76 1846.49 653.76 1856.85 635.79"/><polygon class="cls-1" points="1863.64 443.06 1856.85 454.83 1850.06 443.06 1863.64 443.06"/><polygon class="cls-1" points="1856.85 339.59 1862.91 350.1 1850.79 350.1 1856.85 339.59"/><polygon class="cls-1" points="1769.91 185.06 1779.38 201.48 1760.43 201.48 1769.91 185.06"/><polygon class="cls-1" points="1697.98 137.14 1682.97 163.15 1667.95 137.14 1697.98 137.14"/><polygon class="cls-1" points="474.5 140.78 465.79 155.87 457.07 140.78 474.5 140.78"/><polygon class="cls-1" points="378.85 190.47 383.63 198.77 374.06 198.77 378.85 190.47"/><polygon class="cls-1" points="291.91 343.41 294.67 348.18 289.15 348.18 291.91 343.41"/><polygon class="cls-1" points="295.91 444.67 291.91 451.62 287.9 444.67 295.91 444.67"/><polygon class="cls-1" points="291.91 637.9 300.45 652.7 283.37 652.7 291.91 637.9"/><polygon class="cls-1" points="302.79 741.88 291.91 760.73 281.02 741.88 302.79 741.88"/><polygon class="cls-1" points="291.91 934.9 304.07 955.97 279.74 955.97 291.91 934.9"/><polygon class="cls-1" points="302.89 1042.99 291.91 1062.02 280.93 1042.99 302.89 1042.99"/><polygon class="cls-1" points="391.77 1192.46 378.85 1214.85 365.92 1192.46 391.77 1192.46"/><polygon class="cls-1" points="465.79 1231.07 482.27 1259.62 449.3 1259.62 465.79 1231.07"/><polygon class="cls-1" points="1682.97 1227.57 1702.5 1261.38 1663.43 1261.38 1682.97 1227.57"/><polygon class="cls-1" points="1786 1190.63 1769.91 1218.49 1753.82 1190.63 1786 1190.63"/><polygon class="cls-1" points="1949.6 1196.56 1943.8 1206.63 1937.98 1196.56 1949.6 1196.56"/><polygon class="cls-1" points="1943.8 1091.66 1950.61 1103.46 1936.98 1103.46 1943.8 1091.66"/><polygon class="cls-1" points="1951.09 894.53 1943.8 907.17 1936.5 894.53 1951.09 894.53"/><polygon class="cls-1" points="1943.8 789.93 1951.09 802.57 1936.5 802.57 1943.8 789.93"/><polygon class="cls-1" points="1949.17 594.48 1943.8 603.78 1938.42 594.48 1949.17 594.48"/><polygon class="cls-1" points="1943.8 491.75 1948.5 499.9 1939.08 499.9 1943.8 491.75"/><polygon class="cls-1" points="1947.72 294.14 1943.8 300.93 1939.86 294.14 1947.72 294.14"/><polygon class="cls-1" points="1943.8 191.01 1948.11 198.51 1939.46 198.51 1943.8 191.01"/><polygon class="cls-1" points="1864.14 141.6 1856.85 154.22 1849.55 141.6 1864.14 141.6"/><polygon class="cls-1" points="293.33 144.99 291.91 147.45 290.48 144.99 293.33 144.99"/><polygon class="cls-1" points="204.97 495.55 206.37 497.99 203.56 497.99 204.97 495.55"/><polygon class="cls-1" points="207.46 596.13 204.97 600.46 202.47 596.13 207.46 596.13"/><polygon class="cls-1" points="204.97 792.75 209.81 801.17 200.12 801.17 204.97 792.75"/><polygon class="cls-1" points="210.28 895.67 204.97 904.88 199.66 895.67 210.28 895.67"/><polygon class="cls-1" points="204.97 1094.54 209.29 1102.02 200.65 1102.02 204.97 1094.54"/><polygon class="cls-1" points="208 1198.17 204.97 1203.42 201.93 1198.17 208 1198.17"/><polygon class="cls-1" points="291.91 1243.15 297.94 1253.6 285.87 1253.6 291.91 1243.15"/><polygon class="cls-1" points="1856.85 1238.92 1866.54 1255.71 1847.16 1255.71 1856.85 1238.92"/><polygon class="cls-1" points="2030.73 1247.38 2033.11 1251.49 2028.35 1251.49 2030.73 1247.38"/><polygon class="cls-1" points="2034.46 1047.17 2030.73 1053.66 2026.99 1047.17 2034.46 1047.17"/><polygon class="cls-1" points="2030.73 944.62 2034.46 951.11 2026.99 951.11 2030.73 944.62"/><polygon class="cls-1" points="2034.46 746 2030.73 752.48 2026.99 746 2034.46 746"/><polygon class="cls-1" points="2030.73 643.86 2034.11 649.72 2027.35 649.72 2030.73 643.86"/><polygon class="cls-1" points="2033.76 445.24 2030.73 450.5 2027.7 445.24 2033.76 445.24"/><polygon class="cls-1" points="2030.73 343.48 2033.43 348.16 2028.02 348.16 2030.73 343.48"/><polygon class="cls-1" points="2033.6 144.15 2030.73 149.12 2027.87 144.15 2033.6 144.15"/><polygon class="cls-1" points="118.03 946.99 119.72 949.92 116.33 949.92 118.03 946.99"/><polygon class="cls-1" points="119.59 1048.43 118.03 1051.13 116.46 1048.43 119.59 1048.43"/><polygon class="cls-1" points="2119.1 1199.09 2117.67 1201.55 2116.25 1199.09 2119.1 1199.09"/><polygon class="cls-1" points="2117.67 1097.26 2119.63 1100.66 2115.71 1100.66 2117.67 1097.26"/><polygon class="cls-1" points="2119.36 897.76 2117.67 900.71 2115.99 897.76 2119.36 897.76"/><polygon class="cls-1" points="2117.67 796.25 2119.49 799.41 2115.84 799.41 2117.67 796.25"/><polygon class="cls-1" points="2119.49 596.52 2117.67 599.69 2115.84 596.52 2119.49 596.52"/><polygon class="cls-1" points="2117.67 494.71 2119.81 498.41 2115.54 498.41 2117.67 494.71"/><polygon class="cls-1" points="2119.61 295.28 2117.67 298.64 2115.74 295.28 2119.61 295.28"/><polygon class="cls-1" points="2117.67 193.86 2119.54 197.08 2115.81 197.08 2117.67 193.86"/><polygon class="cls-1" points="2206.05 446.14 2204.61 448.65 2203.17 446.14 2206.05 446.14"/><polygon class="cls-1" points="2204.61 345.02 2205.97 347.37 2203.25 347.37 2204.61 345.02"/><polygon class="cls-1" points="2205.93 145.06 2204.61 147.32 2203.3 145.06 2205.93 145.06"/></svg>