<svg id="Layer_1" data-name="Layer 1" xmlns="http://www.w3.org/2000/svg" viewBox="0 0 162.38 143.75"><defs><style>.cls-1{fill:#fff;}</style></defs><path class="cls-1" d="M108.06,39.6A5.89,5.89,0,1,0,114,45.48,5.89,5.89,0,0,0,108.06,39.6Z"/><path class="cls-1" d="M81.89,47.15a24.73,24.73,0,1,0,24.73,24.73A24.75,24.75,0,0,0,81.89,47.15Zm0,40.57A15.84,15.84,0,1,1,97.73,71.88,15.87,15.87,0,0,1,81.89,87.72Z"/><path class="cls-1" d="M101.52,122.09H61.43A30.2,30.2,0,0,1,31.26,91.93V51.83A30.21,30.21,0,0,1,61.43,21.66h40.09a30.21,30.21,0,0,1,30.17,30.17v40.1A30.2,30.2,0,0,1,101.52,122.09Zm-40.09-91A20.74,20.74,0,0,0,40.71,51.83v40.1a20.73,20.73,0,0,0,20.72,20.71h40.09a20.73,20.73,0,0,0,20.72-20.71V51.83a20.74,20.74,0,0,0-20.72-20.72Z"/></svg>