<svg id="Layer_1" data-name="Layer 1" xmlns="http://www.w3.org/2000/svg" viewBox="0 0 162.38 143.75"><defs><style>.cls-1,.cls-2{fill:#fff;}.cls-2{fill-rule:evenodd;}</style></defs><path class="cls-1" d="M22.16,131.05l8.49-31.66A58.55,58.55,0,1,1,54,122.53Zm33.41-20.39,2,1.2A47.57,47.57,0,1,0,41.3,95.73l1.23,2-4.74,17.68Z"/><path class="cls-2" d="M103.51,79.29c-2.4-1.44-5.54-3.05-8.37-1.89-2.17.89-3.56,4.29-5,6a2.09,2.09,0,0,1-2.7.58,38,38,0,0,1-18.92-16.2,2.33,2.33,0,0,1,.3-3.17c1.36-1.6,3.06-3.42,3.43-5.58s-.64-4.68-1.53-6.61c-1.14-2.45-2.42-6-4.88-7.35-2.26-1.27-5.24-.56-7.26,1.08a14.73,14.73,0,0,0-5.1,11.67A16,16,0,0,0,54,61.56a30.48,30.48,0,0,0,3.55,8.18,62.3,62.3,0,0,0,3.71,5.64A57.26,57.26,0,0,0,77.31,90.32a49.13,49.13,0,0,0,10,4.77c3.93,1.3,7.43,2.65,11.67,1.84,4.45-.84,8.83-3.59,10.59-7.87a6.88,6.88,0,0,0,.49-4C109.5,82.27,105.75,80.62,103.51,79.29Z"/></svg>