<svg id="Layer_1" data-name="Layer 1" xmlns="http://www.w3.org/2000/svg" viewBox="0 0 1920 3227.23"><defs><style>.cls-1{opacity:0.47;}.cls-2{fill:#961b1e;}</style></defs><g class="cls-1"><polygon class="cls-2" points="146.6 1612.46 8.63 1692.13 8.63 1532.78 146.6 1612.46"/><polygon class="cls-2" points="194.63 1527.14 58.48 1448.55 194.63 1369.95 194.63 1527.14"/><polygon class="cls-2" points="135.83 1284.64 14.02 1354.96 14.02 1214.31 135.83 1284.64"/><polygon class="cls-2" points="142.4 1940.27 10.7 2016.3 10.7 1864.27 142.4 1940.27"/><polygon class="cls-2" points="197.24 1859.52 53.23 1776.36 197.24 1693.23 197.24 1859.52"/><polygon class="cls-2" points="440.55 1448.55 287.49 1536.93 287.49 1360.17 440.55 1448.55"/><polygon class="cls-2" points="189.03 1189.65 69.69 1120.73 189.03 1051.83 189.03 1189.65"/><polygon class="cls-2" points="122.06 956.82 20.88 1015.25 20.88 898.41 122.06 956.82"/><polygon class="cls-2" points="124.53 2268.09 19.65 2328.63 19.65 2207.53 124.53 2268.09"/><polygon class="cls-2" points="189.99 2174.75 67.76 2104.18 189.99 2033.61 189.99 2174.75"/><polygon class="cls-2" points="443.31 1776.36 286.12 1867.13 286.12 1685.6 443.31 1776.36"/><polygon class="cls-2" points="489.65 1710.35 320.11 1612.46 489.65 1514.56 489.65 1710.35"/><polygon class="cls-2" points="484.06 1372.83 331.3 1284.64 484.06 1196.47 484.06 1372.83"/><polygon class="cls-2" points="424.45 1120.73 295.53 1195.18 295.53 1046.3 424.45 1120.73"/><polygon class="cls-2" points="177.38 841.66 92.98 792.91 177.38 744.19 177.38 841.66"/><polygon class="cls-2" points="96.61 629.01 33.62 665.4 33.62 592.65 96.61 629.01"/><polygon class="cls-2" points="91.91 2595.9 35.95 2628.2 35.95 2563.59 91.91 2595.9"/><polygon class="cls-2" points="176.64 2479.44 94.45 2432 176.64 2384.55 176.64 2479.44"/><polygon class="cls-2" points="423.04 2104.18 296.23 2177.39 296.23 2030.97 423.04 2104.18"/><polygon class="cls-2" points="483.23 2027.06 332.92 1940.27 483.23 1853.49 483.23 2027.06"/><polygon class="cls-2" points="749.7 1612.46 558.76 1722.72 558.76 1502.19 749.7 1612.46"/><polygon class="cls-2" points="783.21 1563.17 584.67 1448.55 783.21 1333.93 783.21 1563.17"/><polygon class="cls-2" points="738.42 1284.64 564.4 1385.12 564.4 1184.15 738.42 1284.64"/><polygon class="cls-2" points="470.63 1021.74 358.16 956.82 470.63 891.93 470.63 1021.74"/><polygon class="cls-2" points="395.64 792.91 309.93 842.41 309.93 743.44 395.64 792.91"/><polygon class="cls-2" points="163.12 489.16 121.46 465.12 163.12 441.08 163.12 489.16"/><polygon class="cls-2" points="70.77 301.21 46.53 315.18 46.53 287.22 70.77 301.21"/><polygon class="cls-2" points="72.96 2923.72 45.44 2939.6 45.44 2907.82 72.96 2923.72"/><polygon class="cls-2" points="162.21 2782.24 123.35 2759.81 162.21 2737.37 162.21 2782.24"/><polygon class="cls-2" points="390.33 2432 312.61 2476.87 312.61 2387.12 390.33 2432"/><polygon class="cls-2" points="467.08 2326.89 365.25 2268.09 467.08 2209.28 467.08 2326.89"/><polygon class="cls-2" points="728.14 1940.27 569.54 2031.85 569.54 1848.68 728.14 1940.27"/><polygon class="cls-2" points="778.8 1883.36 593.5 1776.36 778.8 1669.37 778.8 1883.36"/><polygon class="cls-2" points="1044.68 1448.55 837.1 1568.41 837.1 1328.7 1044.68 1448.55"/><polygon class="cls-2" points="769.78 1212.09 611.55 1120.73 769.78 1029.39 769.78 1212.09"/><polygon class="cls-2" points="703.1 956.82 582.04 1026.71 582.04 886.93 703.1 956.82"/><polygon class="cls-2" points="452.29 662.19 394.85 629.01 452.29 595.86 452.29 662.19"/><polygon class="cls-2" points="363.26 465.12 326.12 486.55 326.12 443.67 363.26 465.12"/><polygon class="cls-2" points="152.72 143.33 142.27 137.31 152.72 131.27 152.72 143.33"/><polygon class="cls-2" points="155.41 3098.3 136.9 3087.63 155.41 3076.93 155.41 3098.3"/><polygon class="cls-2" points="361.06 2759.81 327.22 2779.36 327.22 2740.27 361.06 2759.81"/><polygon class="cls-2" points="448.7 2622.85 402.02 2595.9 448.7 2568.94 448.7 2622.85"/><polygon class="cls-2" points="686.56 2268.09 590.3 2323.66 590.3 2212.52 686.56 2268.09"/><polygon class="cls-2" points="760.41 2179.32 630.27 2104.18 760.41 2029.04 760.41 2179.32"/><polygon class="cls-2" points="1035.04 1776.36 841.93 1887.87 841.93 1664.85 1035.04 1776.36"/><polygon class="cls-2" points="1071.71 1735.07 859.34 1612.46 1071.71 1489.83 1071.71 1735.07"/><polygon class="cls-2" points="1064.91 1395.44 872.98 1284.64 1064.91 1173.83 1064.91 1395.44"/><polygon class="cls-2" points="1014.98 1120.73 851.94 1214.87 851.94 1026.61 1014.98 1120.73"/><polygon class="cls-2" points="746.54 844.01 658.04 792.91 746.54 741.84 746.54 844.01"/><polygon class="cls-2" points="658.5 629.01 604.36 660.26 604.36 597.77 658.5 629.01"/><polygon class="cls-2" points="438.65 310.75 422.11 301.21 438.65 291.66 438.65 310.75"/><polygon class="cls-2" points="343.74 137.31 335.9 141.82 335.9 132.79 343.74 137.31"/><polygon class="cls-2" points="348.8 3087.63 333.33 3096.54 333.33 3078.7 348.8 3087.63"/><polygon class="cls-2" points="439.81 2935.29 419.79 2923.72 439.81 2912.15 439.81 2935.29"/><polygon class="cls-2" points="648.38 2595.9 609.41 2618.41 609.41 2573.39 648.38 2595.9"/><polygon class="cls-2" points="737.51 2467.48 676.05 2432 737.51 2396.51 737.51 2467.48"/><polygon class="cls-2" points="993.79 2104.18 862.53 2179.96 862.53 2028.4 993.79 2104.18"/><polygon class="cls-2" points="1058.84 2040.59 885.08 1940.27 1058.84 1839.95 1058.84 2040.59"/><polygon class="cls-2" points="1334.11 1612.46 1118.22 1737.11 1118.22 1487.8 1334.11 1612.46"/><polygon class="cls-2" points="1352 1564.91 1150.47 1448.55 1352 1332.21 1352 1564.91"/><polygon class="cls-2" points="1316.04 1284.64 1127.26 1393.64 1127.26 1175.66 1316.04 1284.64"/><polygon class="cls-2" points="1042.65 1029.1 917.46 956.82 1042.65 884.55 1042.65 1029.1"/><polygon class="cls-2" points="964.18 792.91 877.33 843.08 877.33 742.8 964.18 792.91"/><polygon class="cls-2" points="725.86 480.39 699.37 465.12 725.86 449.8 725.86 480.39"/><polygon class="cls-2" points="630.43 301.21 618.37 308.16 618.37 294.25 630.43 301.21"/><polygon class="cls-2" points="631.8 2923.72 617.68 2931.86 617.68 2915.55 631.8 2923.72"/><polygon class="cls-2" points="723.87 2771.63 703.39 2759.81 723.87 2747.98 723.87 2771.63"/><polygon class="cls-2" points="945.44 2432 886.72 2465.91 886.72 2398.09 945.44 2432"/><polygon class="cls-2" points="1033.69 2324.88 935.37 2268.09 1033.69 2211.3 1033.69 2324.88"/><polygon class="cls-2" points="1316.7 1940.27 1126.94 2049.81 1126.94 1830.71 1316.7 1940.27"/><polygon class="cls-2" points="1354.79 1897.58 1144.83 1776.36 1354.79 1655.15 1354.79 1897.58"/><polygon class="cls-2" points="1593.78 1448.55 1414.24 1552.2 1414.24 1344.89 1593.78 1448.55"/><polygon class="cls-2" points="1337.63 1212.22 1179.15 1120.73 1337.63 1029.24 1337.63 1212.22"/><polygon class="cls-2" points="1274.23 956.82 1148.17 1029.61 1148.17 884.05 1274.23 956.82"/><polygon class="cls-2" points="1017.74 658.11 967.33 629.01 1017.74 599.91 1017.74 658.11"/><polygon class="cls-2" points="922.31 465.12 898.28 478.96 898.28 451.25 922.31 465.12"/><polygon class="cls-2" points="719.52 3091.92 712.05 3087.63 719.52 3083.32 719.52 3091.92"/><polygon class="cls-2" points="917.04 2759.81 900.92 2769.12 900.92 2750.48 917.04 2759.81"/><polygon class="cls-2" points="1012.18 2615.37 978.44 2595.9 1012.18 2576.42 1012.18 2615.37"/><polygon class="cls-2" points="1268.16 2268.09 1151.21 2335.62 1151.21 2200.56 1268.16 2268.09"/><polygon class="cls-2" points="1340.24 2200.19 1173.97 2104.18 1340.24 2008.17 1340.24 2200.19"/><polygon class="cls-2" points="1609.22 1776.36 1406.51 1893.41 1406.51 1659.34 1609.22 1776.36"/><polygon class="cls-2" points="1628.97 1716.82 1448.23 1612.46 1628.97 1508.1 1628.97 1716.82"/><polygon class="cls-2" points="1620.1 1373.64 1465.95 1284.64 1620.1 1195.66 1620.1 1373.64"/><polygon class="cls-2" points="1574.25 1120.73 1423.98 1207.49 1423.98 1033.99 1574.25 1120.73"/><polygon class="cls-2" points="1315.95 846.87 1222.54 792.91 1315.95 738.98 1315.95 846.87"/><polygon class="cls-2" points="1226.45 629.01 1172.05 660.43 1172.05 597.59 1226.45 629.01"/><polygon class="cls-2" points="1003.85 306.27 995.08 301.21 1003.85 296.13 1003.85 306.27"/><polygon class="cls-2" points="909.15 3087.63 904.86 3090.09 904.86 3085.14 909.15 3087.63"/><polygon class="cls-2" points="1003.35 2927.91 996.1 2923.72 1003.35 2919.51 1003.35 2927.91"/><polygon class="cls-2" points="1217.79 2595.9 1176.38 2619.82 1176.38 2571.99 1217.79 2595.9"/><polygon class="cls-2" points="1313.3 2481.35 1227.82 2432 1313.3 2382.63 1313.3 2481.35"/><polygon class="cls-2" points="1593.07 2104.18 1414.59 2207.21 1414.59 2001.15 1593.07 2104.18"/><polygon class="cls-2" points="1634.11 2053.59 1437.87 1940.27 1634.11 1826.96 1634.11 2053.59"/><polygon class="cls-2" points="1862.65 1612.46 1705.66 1703.1 1705.66 1521.82 1862.65 1612.46"/><polygon class="cls-2" points="1896.39 1524.39 1765.06 1448.55 1896.39 1372.71 1896.39 1524.39"/><polygon class="cls-2" points="1849.01 1284.64 1712.46 1363.48 1712.46 1205.82 1849.01 1284.64"/><polygon class="cls-2" points="1612.8 1033.2 1480.53 956.82 1612.8 880.47 1612.8 1033.2"/><polygon class="cls-2" points="1543.99 792.91 1439.11 853.48 1439.11 732.37 1543.99 792.91"/><polygon class="cls-2" points="1296.3 485.04 1261.81 465.12 1296.3 445.2 1296.3 485.04"/><polygon class="cls-2" points="1198.29 301.21 1186.14 308.24 1186.14 294.19 1198.29 301.21"/><polygon class="cls-2" points="1195.69 2923.72 1187.45 2928.47 1187.45 2918.95 1195.69 2923.72"/><polygon class="cls-2" points="1292.45 2773.01 1269.57 2759.81 1292.45 2746.59 1292.45 2773.01"/><polygon class="cls-2" points="1542.21 2432 1440.03 2490.96 1440.03 2373.01 1542.21 2432"/><polygon class="cls-2" points="1619.35 2355.76 1467.46 2268.09 1619.35 2180.39 1619.35 2355.76"/><polygon class="cls-2" points="1882.83 1940.27 1695.54 2048.38 1695.54 1832.14 1882.83 1940.27"/><polygon class="cls-2" points="1907.91 1872.14 1742.02 1776.36 1907.91 1680.58 1907.91 1872.14"/><polygon class="cls-2" points="1899.74 1202.37 1758.35 1120.73 1899.74 1039.11 1899.74 1202.37"/><polygon class="cls-2" points="1853.28 956.82 1710.35 1039.36 1710.35 874.31 1853.28 956.82"/><polygon class="cls-2" points="1599.21 681.82 1507.72 629.01 1599.21 576.2 1599.21 681.82"/><polygon class="cls-2" points="1508.8 465.12 1456.73 495.17 1456.73 435.07 1508.8 465.12"/><polygon class="cls-2" points="1286.81 140.76 1280.8 137.31 1286.81 133.82 1286.81 140.76"/><polygon class="cls-2" points="1286.15 3089.95 1282.13 3087.63 1286.15 3085.28 1286.15 3089.95"/><polygon class="cls-2" points="1493.66 2759.81 1464.3 2776.74 1464.3 2742.86 1493.66 2759.81"/><polygon class="cls-2" points="1590.48 2633.61 1525.17 2595.9 1590.48 2558.2 1590.48 2633.61"/><polygon class="cls-2" points="1863.31 2268.09 1705.33 2359.31 1705.33 2176.89 1863.31 2268.09"/><polygon class="cls-2" points="1911.38 2205.97 1735.07 2104.18 1911.38 2002.39 1911.38 2205.97"/><polygon class="cls-2" points="1903.31 880.75 1751.17 792.91 1903.31 705.1 1903.31 880.75"/><polygon class="cls-2" points="1840.88 629.01 1716.52 700.83 1716.52 557.23 1840.88 629.01"/><polygon class="cls-2" points="1582.42 324.94 1541.29 301.21 1582.42 277.46 1582.42 324.94"/><polygon class="cls-2" points="1483.49 137.31 1469.37 145.43 1469.37 129.16 1483.49 137.31"/><polygon class="cls-2" points="1477.54 3087.63 1472.36 3090.61 1472.36 3084.62 1477.54 3087.63"/><polygon class="cls-2" points="1573.46 2931.93 1559.2 2923.72 1573.46 2915.49 1573.46 2931.93"/><polygon class="cls-2" points="1805.19 2595.9 1734.37 2636.8 1734.37 2555.01 1805.19 2595.9"/><polygon class="cls-2" points="1891.6 2499.52 1774.64 2432 1891.6 2364.47 1891.6 2499.52"/><polygon class="cls-2" points="1891.91 533.16 1774.02 465.12 1891.91 397.05 1891.91 533.16"/><polygon class="cls-2" points="1803.53 301.21 1735.22 340.65 1735.22 261.75 1803.53 301.21"/><polygon class="cls-2" points="1768.83 2923.72 1752.54 2933.11 1752.54 2914.33 1768.83 2923.72"/><polygon class="cls-2" points="1864.63 2780.62 1828.57 2759.81 1864.63 2739 1864.63 2780.62"/><polygon class="cls-2" points="1868.97 165.64 1819.89 137.31 1868.97 108.97 1868.97 165.64"/><polygon class="cls-2" points="1854.91 3091.61 1847.99 3087.63 1854.91 3083.61 1854.91 3091.61"/></g></svg>