<svg id="Layer_1" data-name="Layer 1" xmlns="http://www.w3.org/2000/svg" viewBox="0 0 220.21 235.91"><defs><style>.cls-1{fill:#ce2027;}</style></defs><path class="cls-1" d="M138.38,116.41a52.52,52.52,0,1,0-56.55,0,79.35,79.35,0,0,0-51,74,25.83,25.83,0,0,0,25.8,25.79H163.55a25.82,25.82,0,0,0,25.8-25.79A79.35,79.35,0,0,0,138.38,116.41ZM71.15,72.22a39,39,0,1,1,39,39A39,39,0,0,1,71.15,72.22Zm92.4,130.43H56.66a12.24,12.24,0,0,1-12.23-12.23,65.68,65.68,0,1,1,131.36,0A12.25,12.25,0,0,1,163.55,202.65Z"/></svg>