<svg id="Layer_1" data-name="Layer 1" xmlns="http://www.w3.org/2000/svg" viewBox="0 0 162.38 125.04"><defs><style>.cls-1{fill:#fff;}</style></defs><path class="cls-1" d="M121.63,21H44.91A15.59,15.59,0,0,0,29.34,36.54v53.6a15.59,15.59,0,0,0,15.57,15.57h76.72a15.6,15.6,0,0,0,15.58-15.57V36.54A15.6,15.6,0,0,0,121.63,21Zm0,7.44a8.59,8.59,0,0,1,1.85.22L91.11,65.36a10.45,10.45,0,0,1-15.68,0L43.06,28.63a8.67,8.67,0,0,1,1.85-.22Zm8.13,61.73a8.13,8.13,0,0,1-8.13,8.12H44.91a8.13,8.13,0,0,1-8.13-8.12V36.54a8.09,8.09,0,0,1,.61-3.08L69.84,70.29a17.91,17.91,0,0,0,26.86,0l32.45-36.83a8.09,8.09,0,0,1,.61,3.08Z"/></svg>