<svg id="Layer_1" data-name="Layer 1" xmlns="http://www.w3.org/2000/svg" viewBox="0 0 220.21 235.91"><defs><style>.cls-1{fill:#ce2027;}</style></defs><path class="cls-1" d="M110.1,27.84A90.12,90.12,0,1,0,200.23,118,90.21,90.21,0,0,0,110.1,27.84Zm77.42,83.9h-33.9c-.85-28.11-7.38-51.94-17.41-66.94A77.86,77.86,0,0,1,187.52,111.74Zm-77.42,83.9c-14.06,0-29.65-29-31.06-71.46h62.13C139.76,166.59,124.17,195.64,110.1,195.64ZM79,111.74c1.41-42.42,17-71.46,31.06-71.46s29.66,29,31.07,71.46ZM84,44.8c-10,15-16.56,38.83-17.4,66.94H32.7A77.83,77.83,0,0,1,84,44.8ZM32.7,124.18H66.6c.84,28.11,7.37,51.94,17.4,66.93A77.82,77.82,0,0,1,32.7,124.18Zm103.51,66.93c10-15,16.56-38.82,17.41-66.93h33.9A77.84,77.84,0,0,1,136.21,191.11Z"/></svg>