<svg id="Layer_1" data-name="Layer 1" xmlns="http://www.w3.org/2000/svg" viewBox="0 0 162.38 149.18"><defs><style>.cls-1{fill:#fff;}</style></defs><path class="cls-1" d="M81.19,138.87h0a4.55,4.55,0,0,1-3.34-1.46c-1.95-2.09-47.67-51.62-47.67-78.76a51,51,0,0,1,102,0c0,27.14-45.73,76.67-47.68,78.76A4.55,4.55,0,0,1,81.19,138.87Zm0-122.1A41.93,41.93,0,0,0,39.3,58.65c0,18,27.68,52.88,41.89,68.87,14.21-16,41.89-50.86,41.89-68.87A41.93,41.93,0,0,0,81.19,16.77Z"/><path class="cls-1" d="M81.19,79.39a23,23,0,1,1,23-23A23,23,0,0,1,81.19,79.39Zm0-36.81A13.85,13.85,0,1,0,95,56.43,13.86,13.86,0,0,0,81.19,42.58Z"/></svg>